<svg style="display: none;" aria-hidden="true" xmlns="http://www.w3.org/2000/svg" xmlns:xlink="http://www.w3.org/1999/xlink"><symbol viewBox="0 0 40 40" id="svg-basket"><path d="M35.1333 11.6667C34.8454 11.1677 34.433 10.7519 33.9364 10.4598 33.4398 10.1677 32.876 10.0093 32.3 10H10.9667L10 6.23333C9.90234 5.86973 9.68445 5.54991 9.38181 5.32595 9.07917 5.102 8.70961 4.98711 8.33334 5H5.00001C4.55798 5 4.13406 5.1756 3.8215 5.48816 3.50894 5.80072 3.33334 6.22464 3.33334 6.66667 3.33334 7.1087 3.50894 7.53262 3.8215 7.84518 4.13406 8.15774 4.55798 8.33333 5.00001 8.33333H7.06668L11.6667 25.4333C11.7643 25.7969 11.9822 26.1168 12.2849 26.3407 12.5875 26.5647 12.9571 26.6796 13.3333 26.6667H28.3333C28.6411 26.6657 28.9426 26.5796 29.2045 26.4178 29.4663 26.256 29.6782 26.0249 29.8167 25.75L35.2833 14.8167C35.5203 14.32 35.6306 13.7725 35.6044 13.2228 35.5782 12.6732 35.4164 12.1385 35.1333 11.6667zM12.5 35C13.8807 35 15 33.8807 15 32.5 15 31.1193 13.8807 30 12.5 30 11.1193 30 10 31.1193 10 32.5 10 33.8807 11.1193 35 12.5 35zM29.1667 35C30.5474 35 31.6667 33.8807 31.6667 32.5 31.6667 31.1193 30.5474 30 29.1667 30 27.7859 30 26.6667 31.1193 26.6667 32.5 26.6667 33.8807 27.7859 35 29.1667 35z"/></symbol><symbol viewBox="0 0 14 14" id="svg-close"><path d="M8.40994 6.99994L12.7099 2.70994C12.8982 2.52164 13.004 2.26624 13.004 1.99994C13.004 1.73364 12.8982 1.47825 12.7099 1.28994C12.5216 1.10164 12.2662 0.99585 11.9999 0.99585C11.7336 0.99585 11.4782 1.10164 11.2899 1.28994L6.99994 5.58994L2.70994 1.28994C2.52164 1.10164 2.26624 0.99585 1.99994 0.99585C1.73364 0.99585 1.47824 1.10164 1.28994 1.28994C1.10164 1.47825 0.995847 1.73364 0.995847 1.99994C0.995847 2.26624 1.10164 2.52164 1.28994 2.70994L5.58994 6.99994L1.28994 11.2899C1.19621 11.3829 1.12182 11.4935 1.07105 11.6154C1.02028 11.7372 0.994141 11.8679 0.994141 11.9999C0.994141 12.132 1.02028 12.2627 1.07105 12.3845C1.12182 12.5064 1.19621 12.617 1.28994 12.7099C1.3829 12.8037 1.4935 12.8781 1.61536 12.9288C1.73722 12.9796 1.86793 13.0057 1.99994 13.0057C2.13195 13.0057 2.26266 12.9796 2.38452 12.9288C2.50638 12.8781 2.61698 12.8037 2.70994 12.7099L6.99994 8.40994L11.2899 12.7099C11.3829 12.8037 11.4935 12.8781 11.6154 12.9288C11.7372 12.9796 11.8679 13.0057 11.9999 13.0057C12.132 13.0057 12.2627 12.9796 12.3845 12.9288C12.5064 12.8781 12.617 12.8037 12.7099 12.7099C12.8037 12.617 12.8781 12.5064 12.9288 12.3845C12.9796 12.2627 13.0057 12.132 13.0057 11.9999C13.0057 11.8679 12.9796 11.7372 12.9288 11.6154C12.8781 11.4935 12.8037 11.3829 12.7099 11.2899L8.40994 6.99994Z"/></symbol><symbol viewBox="0 0 24 18" id="svg-discord"><path d="M20.317 1.60293C18.7873 0.92338 17.147 0.422718 15.4319 0.135969C15.4007 0.130434 15.3695 0.144265 15.3534 0.171926C15.1424 0.535202 14.9087 1.00913 14.7451 1.38163C12.9004 1.11425 11.0652 1.11425 9.25832 1.38163C9.09465 1.00085 8.85248 0.535202 8.64057 0.171926C8.62449 0.145187 8.59328 0.131357 8.56205 0.135969C6.84791 0.421802 5.20756 0.922464 3.67693 1.60293C3.66368 1.60846 3.65233 1.61769 3.64479 1.62967C0.533392 6.13013 -0.31895 10.52 0.0991801 14.8554C0.101072 14.8766 0.11337 14.8969 0.130398 14.9098C2.18321 16.3693 4.17171 17.2554 6.12328 17.8428C6.15451 17.852 6.18761 17.8409 6.20748 17.816C6.66913 17.2057 7.08064 16.5621 7.43348 15.8853C7.4543 15.8456 7.43442 15.7986 7.39186 15.7829C6.73913 15.5432 6.1176 15.2509 5.51973 14.919C5.47244 14.8923 5.46865 14.8268 5.51216 14.7954C5.63797 14.7041 5.76382 14.6092 5.88396 14.5133C5.90569 14.4958 5.93598 14.4921 5.96153 14.5031C9.88928 16.2394 14.1415 16.2394 18.023 14.5031C18.0485 14.4912 18.0788 14.4949 18.1015 14.5124C18.2216 14.6083 18.3475 14.7041 18.4742 14.7954C18.5177 14.8268 18.5149 14.8923 18.4676 14.919C17.8697 15.2574 17.2482 15.5432 16.5945 15.782C16.552 15.7977 16.533 15.8456 16.5538 15.8853C16.9143 16.5611 17.3258 17.2047 17.7789 17.8151C17.7978 17.8409 17.8319 17.852 17.8631 17.8428C19.8241 17.2554 21.8126 16.3693 23.8654 14.9098C23.8834 14.8969 23.8948 14.8775 23.8967 14.8563C24.3971 9.84408 23.0585 5.49024 20.3482 1.63058C20.3416 1.61769 20.3303 1.60846 20.317 1.60293ZM8.02002 12.2156C6.8375 12.2156 5.86313 11.1645 5.86313 9.8736C5.86313 8.58274 6.8186 7.53164 8.02002 7.53164C9.23087 7.53164 10.1958 8.59197 10.1769 9.8736C10.1769 11.1645 9.22141 12.2156 8.02002 12.2156ZM15.9947 12.2156C14.8123 12.2156 13.8379 11.1645 13.8379 9.8736C13.8379 8.58274 14.7933 7.53164 15.9947 7.53164C17.2056 7.53164 18.1705 8.59197 18.1516 9.8736C18.1516 11.1645 17.2056 12.2156 15.9947 12.2156Z"/></symbol><symbol viewBox="0 0 4 12" id="svg-info"><path d="M0.416667 9.94287H0.833333V6.55713H0.416667C0.186542 6.55713 0 6.34727 0 6.08838V4.96875C0 4.70986 0.186542 4.5 0.416667 4.5H2.75C2.98013 4.5 3.16667 4.70986 3.16667 4.96875V9.94287H3.58333C3.81346 9.94287 4 10.1527 4 10.4116V11.5312C4 11.7901 3.81346 12 3.58333 12H0.416667C0.186542 12 0 11.7901 0 11.5312V10.4116C0 10.1527 0.186542 9.94287 0.416667 9.94287ZM2 0C1.17156 0 0.5 0.755508 0.5 1.6875C0.5 2.61949 1.17156 3.375 2 3.375C2.82844 3.375 3.5 2.61949 3.5 1.6875C3.5 0.755508 2.82842 0 2 0Z"/></symbol><symbol viewBox="0 0 12 2" id="svg-minus"><path d="M10.6667 1.66668H1.33334C1.15653 1.66668 0.986958 1.59644 0.861934 1.47141C0.73691 1.34639 0.666672 1.17682 0.666672 1.00001C0.666672 0.823199 0.73691 0.65363 0.861934 0.528606C0.986958 0.403582 1.15653 0.333344 1.33334 0.333344H10.6667C10.8435 0.333344 11.0131 0.403582 11.1381 0.528606C11.2631 0.65363 11.3333 0.823199 11.3333 1.00001C11.3333 1.17682 11.2631 1.34639 11.1381 1.47141C11.0131 1.59644 10.8435 1.66668 10.6667 1.66668Z"/></symbol><symbol viewBox="0 0 16 16" id="svg-plus"><path d="M12.6667 7.33332H8.66667V3.33332C8.66667 3.15651 8.59643 2.98694 8.47141 2.86192C8.34638 2.73689 8.17681 2.66666 8 2.66666C7.82319 2.66666 7.65362 2.73689 7.5286 2.86192C7.40357 2.98694 7.33333 3.15651 7.33333 3.33332V7.33332H3.33333C3.15652 7.33332 2.98695 7.40356 2.86193 7.52858C2.73691 7.65361 2.66667 7.82318 2.66667 7.99999C2.66667 8.1768 2.73691 8.34637 2.86193 8.47139C2.98695 8.59642 3.15652 8.66666 3.33333 8.66666H7.33333V12.6667C7.33333 12.8435 7.40357 13.013 7.5286 13.1381C7.65362 13.2631 7.82319 13.3333 8 13.3333C8.17681 13.3333 8.34638 13.2631 8.47141 13.1381C8.59643 13.013 8.66667 12.8435 8.66667 12.6667V8.66666H12.6667C12.8435 8.66666 13.013 8.59642 13.1381 8.47139C13.2631 8.34637 13.3333 8.1768 13.3333 7.99999C13.3333 7.82318 13.2631 7.65361 13.1381 7.52858C13.013 7.40356 12.8435 7.33332 12.6667 7.33332Z"/></symbol><symbol viewBox="0 0 20 16" id="svg-tg"><path fill-rule="evenodd" d="M1.3749 6.8879C6.74359 4.62993 10.3236 3.14133 12.1148 2.42212C17.2292 0.36862 18.2919 0.0119045 18.9846 0.00012559C19.1369 -0.00246506 19.4776 0.0339819 19.6982 0.206816C19.8845 0.352754 19.9358 0.549895 19.9603 0.68826C19.9848 0.826626 20.0154 1.14183 19.9911 1.38811C19.714 4.1992 18.5147 11.021 17.9046 14.1694C17.6465 15.5017 17.1382 15.9484 16.6461 15.9921C15.5766 16.0871 14.7645 15.3098 13.7287 14.6543C12.1078 13.6287 11.1921 12.9902 9.61879 11.9893C7.80053 10.8327 8.97923 10.1969 10.0154 9.15799C10.2866 8.88609 14.9987 4.74868 15.0899 4.37335C15.1013 4.32641 15.1119 4.15143 15.0042 4.05904C14.8965 3.96664 14.7376 3.99824 14.6229 4.02337C14.4604 4.05898 11.871 5.71112 6.85486 8.97978C6.11988 9.46697 5.45416 9.70435 4.8577 9.69191C4.20015 9.6782 2.93528 9.33301 1.99498 9.03795C0.84166 8.67605 -0.074973 8.48471 0.00484519 7.87009C0.0464194 7.54996 0.503103 7.22256 1.3749 6.8879Z" clip-rule="evenodd"/></symbol><symbol viewBox="0 0 24 16" id="svg-vk"><path d="M13.0718 15.2C4.87188 15.2 0.194878 9.79458 0 0.799988H4.10743C4.24235 7.40179 7.27038 10.1982 9.66888 10.7748V0.799988H13.5366V6.49368C15.9051 6.24864 18.3933 3.65404 19.2328 0.799988H23.1004C22.4558 4.3171 19.7575 6.9117 17.8387 7.97837C19.7575 8.84323 22.8307 11.1063 24 15.2H19.7425C18.8281 12.4613 16.5497 10.3423 13.5366 10.054V15.2H13.0718Z"/></symbol></svg>